<svg width="460" height="460" viewBox="0 0 460 460" fill="none" xmlns="http://www.w3.org/2000/svg">
<path d="M460 230C460 357.025 357.025 460 230 460C102.975 460 0 357.025 0 230C0 102.975 102.975 0 230 0C357.025 0 460 102.975 460 230ZM79.9501 230C79.9501 312.87 147.13 380.05 230 380.05C312.87 380.05 380.05 312.87 380.05 230C380.05 147.13 312.87 79.9501 230 79.9501C147.13 79.9501 79.9501 147.13 79.9501 230Z" fill="white" fill-opacity="0.5"/>
<path d="M420 230C420 334.934 334.934 420 230 420C125.066 420 40 334.934 40 230C40 125.066 125.066 40 230 40C334.934 40 420 125.066 420 230ZM80.187 230C80.187 312.739 147.261 379.813 230 379.813C312.739 379.813 379.813 312.739 379.813 230C379.813 147.261 312.739 80.187 230 80.187C147.261 80.187 80.187 147.261 80.187 230Z" fill="white" fill-opacity="0.5"/>
<circle cx="230" cy="230" r="150" fill="#19191B"/>
<path d="M230 80C312.843 80 380 147.157 380 230C380 236.463 379.591 242.83 378.798 249.077C373.622 241.97 368.294 235.696 363.255 230.932C351.984 220.438 352.631 217.2 365.327 220.05C369.602 221.086 369.602 221.086 368.048 217.977C364.679 211.499 342.786 191.549 332.681 185.849C320.373 178.853 304.438 173.282 291.095 171.209C281.249 169.654 280.86 169.525 277.751 164.473C275.937 161.493 267.906 152.683 259.744 144.651C250.028 135.194 244.068 128.327 242.514 124.57L240.052 119L238.498 122.887C237.721 125.089 236.036 131.048 234.87 136.23C232.279 148.279 233.963 161.881 239.793 175.613C243.032 183.386 243.42 185.33 241.995 186.755C240.441 188.18 239.275 187.662 234.481 183.775C229.04 179.112 228.781 179.111 226.838 181.443C219.194 190.901 215.696 194.269 203.907 203.727C188.75 215.904 186.807 218.236 182.791 229.766C176.702 247.514 171.131 253.603 143.019 273.554C133.691 280.161 125.659 286.38 125.271 287.546C123.069 293.246 134.599 303.739 149.367 309.439C166.597 316.176 181.495 316.047 205.073 309.311C212.069 307.238 220.619 305.683 225.283 305.683C232.797 305.553 233.834 305.813 236.813 309.311C239.534 312.549 239.923 313.974 239.146 318.508C238.368 324.338 236.554 329.391 229.04 347.657C225.542 356.184 220.941 370.061 218.42 379.559C140.988 373.647 80 308.946 80 230C80 147.157 147.157 80 230 80ZM193.155 234.171C193.155 229.507 214.92 216.682 219.713 218.625C223.081 219.791 221.915 222.382 214.013 230.803C207.276 238.057 205.98 238.835 201.316 238.835C196.264 238.835 193.155 237.021 193.155 234.171Z" fill="white"/>
</svg>
